<svg xmlns="http://www.w3.org/2000/svg" width="64" height="64" viewBox="0 0 64 64" fill="none">
  <defs>
    <linearGradient id="g" x1="0" y1="0" x2="1" y2="1">
      <stop offset="0%" stop-color="#A7F3D0"/>
      <stop offset="50%" stop-color="#22D3EE"/>
      <stop offset="100%" stop-color="#38BDF8"/>
    </linearGradient>
  </defs>
  <path d="M32 8c-9.941 0-18 8.059-18 18v18c0 3.314 2.686 6 6 6 2.21 0 4.164-1.196 5.2-2.978C26.608 49.402 28.18 50 30 50c1.82 0 3.392-.598 4.8-1.978C35.836 49.804 37.79 51 40 51c3.314 0 6-2.686 6-6V26c0-9.941-8.059-18-18-18z" fill="url(#g)" fill-opacity="0.2" stroke="#22D3EE" stroke-width="2" stroke-linejoin="round"/>
  <circle cx="25" cy="30" r="3" fill="#22D3EE"/>
  <circle cx="39" cy="30" r="3" fill="#22D3EE"/>
  <path d="M24 38c2.667 2 5.333 2 8 0" stroke="#22D3EE" stroke-width="2" stroke-linecap="round"/>
</svg>

